<svg xmlns="http://www.w3.org/2000/svg" viewBox="0 0 640 640"><defs><style>.cls-1{fill:#a8a8a8;stroke:#4d4d4d;stroke-miterlimit:10;stroke-width:4px;}.cls-1,.cls-2{opacity:0.5;}.cls-3{fill:#fff;}</style></defs><g id="Cloud2"><path class="cls-1" d="M552.87,226.49c2.47-27.1-5.38-57.18-27.65-86.33-47.87-36.41-98.32-34.11-133.8-10.85a104.65,104.65,0,0,0-204.85-9H186A104.63,104.63,0,0,0,81.34,224.91c0,1.11,0,2.22.07,3.33a98.72,98.72,0,0,0-34,47.57c-44.34,32.46-62.18,99-15,161l0,0c28,21.34,56.87,29.42,83.13,27.82a98.6,98.6,0,0,0,147.79,66.62A98.6,98.6,0,0,0,455.9,547.06l.57,0A98.6,98.6,0,0,0,557.59,463.7c16.26-4.14,32.92-12.09,49.28-24.58,24.07-31.65,31.22-64.46,26.57-93.32a98.62,98.62,0,0,0-80.57-119.31Z"/><g class="cls-2"><path class="cls-3" d="M288.35,155.26c-5,.83-9.71,1.73-14.25,2.92a94.45,94.45,0,0,0-12.92,4.24,56.85,56.85,0,0,0-20.6,14,65.7,65.7,0,0,0-7.43,10c-1,1.9-2.16,3.7-3,5.73-.46,1-1,2-1.43,3l-1.3,3.1-.67,1.55-.59,1.61c-.4,1.07-.78,2.15-1.22,3.23s-.7,2.21-1.1,3.32l-1.15,3.36c-.66,2.27-1.39,4.57-2.16,6.91s-1.37,4.72-2.28,7.13A65.13,65.13,0,0,1,216,195.16l.71-3.86c.28-1.29.68-2.55,1-3.83a30.6,30.6,0,0,1,1.26-3.79q.72-1.87,1.5-3.75a54.39,54.39,0,0,1,9.07-13.67,47.62,47.62,0,0,1,13.15-10.09,50.58,50.58,0,0,1,15.37-5.1,54.44,54.44,0,0,1,15.65-.21,50.2,50.2,0,0,1,7.52,1.57A34.49,34.49,0,0,1,288.35,155.26Z"/></g><g class="cls-2"><path class="cls-3" d="M152,248.58a210,210,0,0,0-15.14,24.13,166.64,166.64,0,0,0-11.16,25.37,122.28,122.28,0,0,0-6,26.31,101.73,101.73,0,0,0-.56,13.27,95,95,0,0,0,1.16,13.17,89.74,89.74,0,0,0,2.89,12.93,103.09,103.09,0,0,0,4.5,12.58,143.24,143.24,0,0,0,13.08,23.82,228.13,228.13,0,0,0,17.09,22.09c6.16,7.15,12.79,14,19.49,21a152.94,152.94,0,0,1-45.95-35.94c-.83-.93-1.61-1.9-2.38-2.88l-2.34-2.92c-1.46-2-3-4-4.34-6.14a108.85,108.85,0,0,1-7.58-13.1,101.8,101.8,0,0,1-9.28-29.15,104.09,104.09,0,0,1-1.13-15.37,101.57,101.57,0,0,1,1.29-15.3,107,107,0,0,1,9.13-28.83,124.09,124.09,0,0,1,25.93-35.79A88,88,0,0,1,152,248.58Z"/></g><g class="cls-2"><path class="cls-3" d="M265,398.76c3,16.89,9.2,32.45,18.46,45.23A83.38,83.38,0,0,0,319.91,472a56.72,56.72,0,0,0,5.5,2.1l2.79,1c.91.36,1.91.53,2.85.83l5.74,1.64c2,.42,3.92.8,5.88,1.26l2.95.65,3,.46c2,.3,4,.64,6,1s4.06.43,6.09.66l3.06.36,1.53.18c.51.05,1,.07,1.54.1,2.05.1,4.11.26,6.18.41s4.13.31,6.22.33l6.25.2,3.15.13c1.05.05,2.09,0,3.14,0l6.33,0c2.11,0,4.24.12,6.36.05q6.36-.14,12.85,0-6.06,2.21-12.26,4.09c-2.05.69-4.16,1.11-6.25,1.64l-6.31,1.47c-1.06.24-2.11.49-3.18.67l-3.2.53-6.43,1c-1.08.14-2.15.37-3.24.44l-3.25.26c-2.18.18-4.36.37-6.54.5-4.37.22-8.77.16-13.18.09-2.21-.15-4.42-.29-6.63-.49l-3.31-.28-3.31-.49c-2.21-.32-4.41-.71-6.62-1.07l-6.56-1.58-1.64-.41a16,16,0,0,1-1.63-.48l-3.22-1.09a65.53,65.53,0,0,1-6.4-2.35c-2.08-.95-4.2-1.81-6.24-2.84s-4-2.19-6-3.32-3.83-2.56-5.74-3.85a34.44,34.44,0,0,1-2.74-2.11c-.91-.71-1.79-1.46-2.68-2.19a77.48,77.48,0,0,1-17.25-21.33,82.43,82.43,0,0,1-8.7-25.39,84.37,84.37,0,0,1-1.07-13.14A60.41,60.41,0,0,1,265,398.76Z"/></g><g class="cls-2"><path class="cls-3" d="M502.41,485.64a375.67,375.67,0,0,0,10.31-38.21,317.3,317.3,0,0,0,6-38.57,231.76,231.76,0,0,0,.4-38.43,171.4,171.4,0,0,0-2.5-18.85,149.65,149.65,0,0,0-4.56-18.3c-.5-1.49-.94-3-1.47-4.47l-1.62-4.41-1.8-4.34c-.59-1.45-1.31-2.84-1.94-4.27a139.76,139.76,0,0,0-9.11-16.41,149.74,149.74,0,0,0-11.34-15.06l-3.14-3.55-3.3-3.42c-1.07-1.17-2.23-2.25-3.38-3.35s-2.26-2.24-3.48-3.27c-4.71-4.3-9.75-8.27-14.92-12.12s-10.61-7.4-16.24-10.69a350.05,350.05,0,0,0-35.1-18.19,189,189,0,0,1,38.44,11.61,175.27,175.27,0,0,1,18.25,9c2.92,1.76,5.89,3.44,8.71,5.39,1.41,1,2.86,1.88,4.26,2.88l4.13,3.07a138.21,138.21,0,0,1,28.87,29.71,141,141,0,0,1,10.69,18,138.2,138.2,0,0,1,7.79,19.41A157.68,157.68,0,0,1,531.16,349a166.46,166.46,0,0,1,2.1,20.59,194.39,194.39,0,0,1-2.92,40.82,227.84,227.84,0,0,1-10.58,39.05c-2.33,6.31-4.9,12.51-7.77,18.56A160.94,160.94,0,0,1,502.41,485.64Z"/></g></g></svg>