<svg xmlns="http://www.w3.org/2000/svg" viewBox="0 0 640 640"><defs><style>.cls-1{fill:#a8a8a8;stroke:#4d4d4d;stroke-miterlimit:10;stroke-width:4px;}.cls-1,.cls-2{opacity:0.5;}.cls-3{fill:#fff;}</style></defs><g id="Cloud"><path class="cls-1" d="M545,406.54a104.65,104.65,0,0,0-153.1-129.63,104.65,104.65,0,0,0-204.84-9h-.6A104.72,104.72,0,0,0,87.23,405.67a104.64,104.64,0,1,0,60.59,199.65,104.85,104.85,0,0,0,88,7.87A168.25,168.25,0,0,0,405.23,611a104.94,104.94,0,0,0,76.68-8.27A104.64,104.64,0,1,0,545,406.54Z"/><g class="cls-2"><path class="cls-3" d="M238,331c-5,.83-9.71,1.74-14.25,2.93a93.09,93.09,0,0,0-12.92,4.23c-8.11,3.41-15.1,7.94-20.6,14a66.88,66.88,0,0,0-7.43,10c-1,1.91-2.16,3.71-3,5.73-.46,1-1,2-1.43,3L177,374l-.67,1.56-.59,1.6c-.39,1.08-.78,2.16-1.21,3.23s-.71,2.21-1.11,3.32l-1.15,3.36c-.66,2.28-1.39,4.58-2.15,6.91s-1.38,4.72-2.28,7.13a65,65,0,0,1-2.23-30.22l.71-3.86c.27-1.28.67-2.55,1-3.82a30.69,30.69,0,0,1,1.25-3.8c.48-1.25,1-2.5,1.5-3.74A54.71,54.71,0,0,1,179.21,342a47.54,47.54,0,0,1,13.15-10.08,50.66,50.66,0,0,1,15.38-5.11,54.72,54.72,0,0,1,15.64-.21,48.76,48.76,0,0,1,7.52,1.58A34.8,34.8,0,0,1,238,331Z"/></g><g class="cls-2"><path class="cls-3" d="M253.73,413.33a165.44,165.44,0,0,0-17.87,10.27,122.19,122.19,0,0,0-15.6,12.09c-9.46,8.78-16.84,19.05-21,30.68l-.44,1.07-.34,1.11-.69,2.21c-.22.75-.49,1.47-.67,2.23l-.5,2.28a93.52,93.52,0,0,0-1.72,9.24l-.42,4.75c-.05.8-.17,1.59-.18,2.39l-.06,2.42c0,1.61-.13,3.22-.1,4.85l.16,4.9.08,2.47.21,2.47c.15,1.65.3,3.3.4,5s.45,3.32.63,5l.61,5c.59,3.34,1.1,6.74,1.63,10.17.68,3.38,1.26,6.82,1.75,10.35a103.88,103.88,0,0,1-17-39l-1-5.38c-.28-1.81-.38-3.65-.57-5.48l-.26-2.76c-.11-.91,0-1.85-.05-2.78v-5.58a88.69,88.69,0,0,1,1.42-11.19l.56-2.78c.21-.93.51-1.83.76-2.75l.81-2.73.4-1.37.51-1.34c.73-1.76,1.4-3.55,2.2-5.28s1.7-3.42,2.6-5.1l3.05-4.83c1.07-1.57,2.25-3.07,3.41-4.57a73.94,73.94,0,0,1,16.6-15A81.81,81.81,0,0,1,232.71,417a77.06,77.06,0,0,1,10.41-2.64A55.75,55.75,0,0,1,253.73,413.33Z"/></g><g class="cls-2"><path class="cls-3" d="M473.94,542.73A142.6,142.6,0,0,0,481,513.32a117.93,117.93,0,0,0,.36-29.24,98.18,98.18,0,0,0-7.25-27.52,96.1,96.1,0,0,0-6.49-12.6,107.37,107.37,0,0,0-8.16-11.69c-11.91-14.95-27.4-27.28-44.18-37.93-8.4-5.33-17.16-10.27-26.11-15s-18.12-9.2-27.35-13.86a211.07,211.07,0,0,1,59.22,18.57c2.36,1.15,4.67,2.41,7,3.61s4.58,2.59,6.84,4,4.51,2.76,6.68,4.3c1.09.75,2.2,1.47,3.27,2.26l3.22,2.37A129.34,129.34,0,0,1,471.23,423a115.6,115.6,0,0,1,9.17,13.53,97.66,97.66,0,0,1,6.93,14.88,94.08,94.08,0,0,1,5.79,32A100.89,100.89,0,0,1,488.17,515a103.63,103.63,0,0,1-6,14.57A77.4,77.4,0,0,1,473.94,542.73Z"/></g></g></svg>