<svg xmlns="http://www.w3.org/2000/svg" viewBox="0 0 640 640"><defs><style>.cls-1{fill:#50526d;stroke:#333;stroke-miterlimit:10;stroke-width:4px;}.cls-1,.cls-2{opacity:0.5;}.cls-3{fill:#f2f2ad;}</style></defs><g id="CloudNigth2"><path class="cls-1" d="M553.52,208.23c2.48-27.09-5.38-57.17-27.65-86.33C478,85.5,427.55,87.8,392.07,111.05a104.65,104.65,0,0,0-204.84-9h-.6A104.62,104.62,0,0,0,82,206.65c0,1.12,0,2.23.06,3.33a98.68,98.68,0,0,0-34,47.58c-44.34,32.45-62.18,99-15,161l0,0C61.07,440,90,448,116.21,446.44A98.62,98.62,0,0,0,264,513.07a98.59,98.59,0,0,0,192.54,15.74l.57,0a98.59,98.59,0,0,0,101.12-83.4c16.26-4.14,32.92-12.08,49.28-24.57,24.07-31.66,31.22-64.47,26.57-93.33a98.57,98.57,0,0,0-80.57-119.31Z"/><g class="cls-2"><path class="cls-3" d="M289,137c-5,.83-9.71,1.74-14.25,2.93a93.09,93.09,0,0,0-12.92,4.23c-8.11,3.41-15.1,7.94-20.6,14a66.88,66.88,0,0,0-7.43,10c-1,1.91-2.16,3.71-3,5.73-.46,1-1,2-1.43,3L228,180l-.67,1.56-.59,1.6c-.39,1.08-.77,2.16-1.21,3.23s-.71,2.21-1.11,3.32l-1.15,3.36c-.66,2.28-1.39,4.58-2.15,6.91s-1.38,4.72-2.28,7.13a65,65,0,0,1-2.23-30.22l.71-3.86c.27-1.28.67-2.55,1-3.82a30.69,30.69,0,0,1,1.25-3.8c.48-1.25,1-2.5,1.5-3.74A54.71,54.71,0,0,1,230.21,148a47.54,47.54,0,0,1,13.15-10.08,50.66,50.66,0,0,1,15.38-5.11,54.72,54.72,0,0,1,15.64-.21,48.76,48.76,0,0,1,7.52,1.58A34.8,34.8,0,0,1,289,137Z"/></g><g class="cls-2"><path class="cls-3" d="M152.61,230.32a209.57,209.57,0,0,0-15.15,24.13,167.63,167.63,0,0,0-11.16,25.37,121.93,121.93,0,0,0-5.94,26.31,100.08,100.08,0,0,0-.56,13.28A92.32,92.32,0,0,0,121,332.58a89,89,0,0,0,2.89,12.93,102.89,102.89,0,0,0,4.49,12.57,142.26,142.26,0,0,0,13.09,23.83A230.49,230.49,0,0,0,158.51,404c6.17,7.14,12.8,14,19.49,21a152.91,152.91,0,0,1-45.95-35.94c-.83-.93-1.6-1.9-2.38-2.87l-2.34-2.93c-1.46-2-3-4-4.34-6.13A109.75,109.75,0,0,1,115.41,364a101.62,101.62,0,0,1-9.27-29.14A102.85,102.85,0,0,1,105,319.51a98.82,98.82,0,0,1,1.29-15.3,107,107,0,0,1,9.12-28.84,124.2,124.2,0,0,1,25.93-35.78A87.49,87.49,0,0,1,152.61,230.32Z"/></g><g class="cls-2"><path class="cls-3" d="M265.61,380.51c3,16.88,9.2,32.45,18.46,45.22a83.37,83.37,0,0,0,36.49,28,55.34,55.34,0,0,0,5.51,2.1l2.78,1c.92.37,1.91.54,2.86.83l5.73,1.65c2,.41,3.93.8,5.88,1.25l2.95.66,3,.46c2,.29,4,.64,6,1s4.06.42,6.1.66l3.05.36,1.53.18c.51.05,1,.06,1.54.09,2.06.11,4.12.27,6.18.41s4.14.31,6.22.34l6.26.19,3.14.14c1,0,2.09,0,3.15,0l6.32,0c2.11,0,4.24.11,6.36,0q6.36-.13,12.85.05c-4,1.48-8.13,2.84-12.26,4.09-2,.7-4.15,1.11-6.25,1.65l-6.31,1.47c-1,.23-2.11.49-3.17.67l-3.21.52-6.43,1c-1.08.14-2.15.37-3.24.43l-3.25.27c-2.17.17-4.35.36-6.54.5-4.37.21-8.77.15-13.18.08-2.2-.15-4.41-.29-6.62-.48l-3.32-.28-3.31-.49c-2.21-.32-4.41-.71-6.62-1.08L327.7,472l-1.64-.41a13.09,13.09,0,0,1-1.62-.48L321.21,470c-2.14-.76-4.32-1.38-6.4-2.36s-4.19-1.8-6.23-2.84-4.05-2.18-6-3.31-3.84-2.57-5.74-3.86c-1-.61-1.84-1.4-2.75-2.1s-1.79-1.47-2.67-2.2A77.37,77.37,0,0,1,274.12,432a82.35,82.35,0,0,1-8.69-25.38,83.28,83.28,0,0,1-1.08-13.14A60.93,60.93,0,0,1,265.61,380.51Z"/></g><g class="cls-2"><path class="cls-3" d="M503.06,467.39a372.57,372.57,0,0,0,10.31-38.22,315.5,315.5,0,0,0,6-38.56,229.74,229.74,0,0,0,.4-38.44,174,174,0,0,0-2.49-18.84A149.84,149.84,0,0,0,512.68,315c-.5-1.48-.94-3-1.47-4.47l-1.62-4.41-1.8-4.34c-.59-1.44-1.3-2.84-1.94-4.27a138.2,138.2,0,0,0-9.11-16.4,147.15,147.15,0,0,0-11.34-15.06l-3.14-3.55L479,259.1c-1.07-1.18-2.24-2.26-3.38-3.36s-2.26-2.24-3.49-3.26c-4.7-4.31-9.75-8.27-14.91-12.13S446.57,233,441,229.66a351.23,351.23,0,0,0-35.11-18.18,188.25,188.25,0,0,1,38.45,11.61,174.11,174.11,0,0,1,18.24,9c2.92,1.75,5.9,3.43,8.71,5.39,1.42,1,2.87,1.87,4.26,2.87l4.14,3.07a138.68,138.68,0,0,1,28.86,29.72,141.54,141.54,0,0,1,10.7,18A137.55,137.55,0,0,1,527,310.5a156.56,156.56,0,0,1,4.83,20.26,166.07,166.07,0,0,1,2.1,20.59A193.63,193.63,0,0,1,531,392.16a227,227,0,0,1-10.58,39.06q-3.48,9.45-7.77,18.56A160.17,160.17,0,0,1,503.06,467.39Z"/></g></g></svg>