<svg id="Capa_1" data-name="Capa 1" xmlns="http://www.w3.org/2000/svg" viewBox="0 0 500 500"><defs><style>.cls-1{fill:#1b1464;stroke:#333;stroke-width:4px;opacity:0.66;}.cls-1,.cls-5,.cls-7{stroke-miterlimit:10;}.cls-2,.cls-6,.cls-7{opacity:0.5;}.cls-3{fill:#f2f2ad;}.cls-4{fill:#0400aa;}.cls-5,.cls-9{fill:#fce68b;}.cls-5{stroke:#ffdb76;stroke-width:15px;}.cls-6,.cls-7{fill:#e2c85a;}.cls-7{stroke:#d1b850;stroke-width:2px;}.cls-8{fill:none;}</style></defs><path class="cls-1" d="M245.29,229.9a22.54,22.54,0,0,0-33-27.91,22.53,22.53,0,0,0-44.11-1.94h-.13a22.53,22.53,0,0,0-21.37,29.67,22.53,22.53,0,1,0,13,43,22.58,22.58,0,0,0,19,1.69,36.21,36.21,0,0,0,36.47-.46,22.65,22.65,0,0,0,16.52-1.78,22.53,22.53,0,1,0,13.59-42.26Z"/><g class="cls-2"><path class="cls-3" d="M179.17,213.64a40.11,40.11,0,0,0-5.66,2.21,13.66,13.66,0,0,0-4,3,20.82,20.82,0,0,0-2.81,4.29c-.43.83-.77,1.75-1.27,2.67a20.64,20.64,0,0,1-1.39,3,16.66,16.66,0,0,1-1-3.25,16.43,16.43,0,0,1-.08-3.44,12,12,0,0,1,2.93-6.64,10.58,10.58,0,0,1,6.61-3.34A9.85,9.85,0,0,1,179.17,213.64Z"/></g><g class="cls-2"><path class="cls-3" d="M182.56,231.37a40.28,40.28,0,0,0-6.78,5.36,17.8,17.8,0,0,0-4.12,6.36,21,21,0,0,0-.93,3.67,30.52,30.52,0,0,0-.27,4c-.05,2.77.28,5.67.45,8.81a19.49,19.49,0,0,1-4.35-8.31,18.4,18.4,0,0,1-.55-4.89,17,17,0,0,1,1-5,15.55,15.55,0,0,1,15.59-10Z"/></g><g class="cls-2"><path class="cls-4" d="M230,259.23s15.25-25.68-24.14-38.17"/><path class="cls-3" d="M230,259.23a31.73,31.73,0,0,0,.91-12.59A21.85,21.85,0,0,0,226.16,236a30.46,30.46,0,0,0-4.19-4.32c-.74-.71-1.61-1.28-2.4-2L217,227.89c-3.5-2.39-7.3-4.49-11.17-6.83a39.65,39.65,0,0,1,13.09,3.4c1,.49,2.07,1,3.07,1.59a31.25,31.25,0,0,1,2.92,1.92,26.44,26.44,0,0,1,5.16,4.93,20.93,20.93,0,0,1,4.72,13.52A20.25,20.25,0,0,1,230,259.23Z"/></g><path class="cls-5" d="M223.84,230.78a9.92,9.92,0,0,0-9.92-9.91h0A67.47,67.47,0,0,0,208,238.74a9.92,9.92,0,0,0,15.84-8Z"/><path class="cls-6" d="M223.84,230.78a9.92,9.92,0,0,0-9.92-9.91h0A67.47,67.47,0,0,0,208,238.74a9.92,9.92,0,0,0,15.84-8Z"/><path class="cls-5" d="M274.47,198.47a11.9,11.9,0,0,0,11.9-11.9,12.53,12.53,0,0,0-.3-2.69,68.64,68.64,0,0,0-23.22.12,12.12,12.12,0,0,0-.28,2.57A11.9,11.9,0,0,0,274.47,198.47Z"/><path class="cls-6" d="M274.47,198.47a11.9,11.9,0,0,0,11.9-11.9,12.53,12.53,0,0,0-.3-2.69,68.64,68.64,0,0,0-23.22.12,12.12,12.12,0,0,0-.28,2.57A11.9,11.9,0,0,0,274.47,198.47Z"/><path class="cls-7" d="M235.74,306.5h.17a68.19,68.19,0,0,1-22-25.73,22,22,0,0,0-.29,3.56"/><path class="cls-5" d="M257.91,284.33c-1.29-5.25-4.32-7.58-6.19-13.65s-9.09-8.51-16-8.51a22.16,22.16,0,0,0-21.88,18.6,68.19,68.19,0,0,0,22,25.73C248.08,306.4,260.8,296.17,257.91,284.33Z"/><path class="cls-8" d="M257.86,282.94A22.07,22.07,0,0,0,251,268.23a61.4,61.4,0,0,0,3.65,9.31Z"/><path class="cls-5" d="M262.78,184.35h0l.06-.35a68,68,0,0,0-49,36.87H214A68,68,0,0,1,262.78,184.35Z"/><path class="cls-6" d="M274.47,198.47a11.9,11.9,0,0,0,11.9-11.9,11.75,11.75,0,0,0-.23-2.31l-.14,0a68.58,68.58,0,0,0-23.21.12,11.61,11.61,0,0,0-.22,2.22A11.9,11.9,0,0,0,274.47,198.47Z"/><path class="cls-6" d="M235.91,306.5a22.17,22.17,0,0,0,22-22.17c0-.46,0-.93-.05-1.39l-3.24-5.4a61.4,61.4,0,0,1-3.65-9.31,22.17,22.17,0,0,0-37.11,12.54,68.1,68.1,0,0,1-5.86-42,9.92,9.92,0,1,0,6-17.87l-.18.35a68,68,0,0,0,0,59.9c0,.18,1.18,3,1.65,3.91l4.1,5.69a68.32,68.32,0,0,0,15.69,15.69l.44.44h.17A68,68,0,0,0,306,311.5l-.55,0a68,68,0,0,1-69.54-5Z"/><path class="cls-5" d="M223.84,230.78a9.92,9.92,0,0,1-15.84,8,68.1,68.1,0,0,0,5.86,42A22.17,22.17,0,0,1,251,268.23a60.7,60.7,0,0,1-2.56-17.52,61.7,61.7,0,0,1,1-10.86,60.89,60.89,0,0,1,49.18-49.07c1.88-.34,3.78-.58,5.72-.74a67.51,67.51,0,0,0-18.13-5.78,11.75,11.75,0,0,1,.23,2.31,11.9,11.9,0,1,1-23.8,0,11.61,11.61,0,0,1,.22-2.22h0A68,68,0,0,0,214,220.87,9.91,9.91,0,0,1,223.84,230.78Z"/><path class="cls-9" d="M223.84,230.78a9.92,9.92,0,0,1-15.84,8,68.1,68.1,0,0,0,5.86,42A22.17,22.17,0,0,1,251,268.23a60.7,60.7,0,0,1-2.56-17.52,61.7,61.7,0,0,1,1-10.86,60.89,60.89,0,0,1,49.18-49.07c1.88-.34,3.78-.58,5.72-.74a67.51,67.51,0,0,0-18.13-5.78,11.75,11.75,0,0,1,.23,2.31,11.9,11.9,0,1,1-23.8,0,11.61,11.61,0,0,1,.22-2.22h0A68,68,0,0,0,214,220.87,9.91,9.91,0,0,1,223.84,230.78Z"/><path class="cls-5" d="M274.24,300.6l-.39-.39a61.36,61.36,0,0,1-14.07-14.06l-1.92-3.21c0,.46.05.93.05,1.39a22.17,22.17,0,0,1-22,22.17,68,68,0,0,0,69.54,5A60.43,60.43,0,0,1,274.4,300.6Z"/><path class="cls-5" d="M274.24,300.6l-.39-.39a61.36,61.36,0,0,1-14.07-14.06l-1.92-3.21c0,.46.05.93.05,1.39a22.17,22.17,0,0,1-22,22.17,68,68,0,0,0,69.54,5A60.43,60.43,0,0,1,274.4,300.6Z"/><path class="cls-1" d="M323.1,289.79a20.75,20.75,0,0,0-30.36-25.71,20.76,20.76,0,0,0-40.63-1.79H252a20.75,20.75,0,0,0-19.68,27.33,20.75,20.75,0,0,0,4.44,41,20.47,20.47,0,0,0,7.57-1.43,20.72,20.72,0,0,0,17.46,1.56,33.35,33.35,0,0,0,33.59-.42,21.1,21.1,0,0,0,5.54.75,20.72,20.72,0,0,0,9.67-2.39,20.75,20.75,0,1,0,12.52-38.92Z"/><g class="cls-2"><path class="cls-3" d="M262.21,274.81A40.6,40.6,0,0,0,257,277a13,13,0,0,0-3.55,2.7,20.08,20.08,0,0,0-2.58,3.86c-.41.75-.74,1.59-1.22,2.43a18.93,18.93,0,0,1-1.38,2.73,14,14,0,0,1-1.06-3,14.69,14.69,0,0,1-.14-3.19,11,11,0,0,1,2.71-6.21,9.73,9.73,0,0,1,6.19-3.09A9,9,0,0,1,262.21,274.81Z"/></g><g class="cls-2"><path class="cls-3" d="M265.33,291.14a39.27,39.27,0,0,0-6.15,5.06,16.47,16.47,0,0,0-3.7,5.81,18.57,18.57,0,0,0-.86,3.32,30.68,30.68,0,0,0-.28,3.65c-.08,2.54.18,5.21.26,8.13a17.34,17.34,0,0,1-4.16-7.63,16.24,16.24,0,0,1-.54-4.54,15.14,15.14,0,0,1,.89-4.66,13.89,13.89,0,0,1,6-7.17A13.75,13.75,0,0,1,265.33,291.14Z"/></g><g class="cls-2"><path class="cls-3" d="M309,316.8a29.7,29.7,0,0,0,.68-11.58,20.19,20.19,0,0,0-4.35-9.69,28.5,28.5,0,0,0-3.83-3.95c-.67-.66-1.46-1.19-2.18-1.81l-2.34-1.7c-3.2-2.21-6.68-4.19-10.21-6.42a35.27,35.27,0,0,1,12.13,3,31.06,31.06,0,0,1,5.56,3.23,24.3,24.3,0,0,1,4.79,4.56A19.26,19.26,0,0,1,313.59,305,18.45,18.45,0,0,1,309,316.8Z"/></g></svg>