<svg xmlns="http://www.w3.org/2000/svg" viewBox="0 0 500 500"><defs><style>.cls-1{fill:#1b1464;stroke:#333;stroke-width:4px;opacity:0.66;}.cls-1,.cls-4,.cls-5{stroke-miterlimit:10;}.cls-2,.cls-5,.cls-6{opacity:0.5;}.cls-3{fill:#f2f2ad;}.cls-4{fill:#fce68b;stroke:#ffdb76;stroke-width:15px;}.cls-5,.cls-6{fill:#e2c85a;}.cls-5{stroke:#d1b850;stroke-width:2px;}</style></defs><g id="Mon2"><path class="cls-1" d="M245.29,229.9a22.54,22.54,0,0,0-33-27.91,22.53,22.53,0,0,0-44.11-1.94h-.13a22.53,22.53,0,0,0-21.37,29.67,22.53,22.53,0,1,0,13,43,22.58,22.58,0,0,0,19,1.69,36.21,36.21,0,0,0,36.47-.46,22.65,22.65,0,0,0,16.52-1.78,22.53,22.53,0,1,0,13.59-42.26Z"/><g class="cls-2"><path class="cls-3" d="M179.17,213.64a40.11,40.11,0,0,0-5.66,2.21,13.66,13.66,0,0,0-4,3,20.82,20.82,0,0,0-2.81,4.29c-.43.83-.77,1.75-1.27,2.67a20.64,20.64,0,0,1-1.39,3,16.66,16.66,0,0,1-1-3.25,16.43,16.43,0,0,1-.08-3.44,12,12,0,0,1,2.93-6.64,10.58,10.58,0,0,1,6.61-3.34A9.85,9.85,0,0,1,179.17,213.64Z"/></g><g class="cls-2"><path class="cls-3" d="M182.56,231.37a40.28,40.28,0,0,0-6.78,5.36,17.8,17.8,0,0,0-4.12,6.36,21,21,0,0,0-.93,3.67,30.52,30.52,0,0,0-.27,4c-.05,2.77.28,5.67.45,8.81a19.49,19.49,0,0,1-4.35-8.31,18.4,18.4,0,0,1-.55-4.89,17,17,0,0,1,1-5,15.55,15.55,0,0,1,15.59-10Z"/></g><g class="cls-2"><path class="cls-3" d="M230,259.23a31.73,31.73,0,0,0,.91-12.59A21.85,21.85,0,0,0,226.16,236a30.46,30.46,0,0,0-4.19-4.32c-.74-.71-1.61-1.28-2.4-2L217,227.89c-3.5-2.39-7.3-4.49-11.17-6.83a39.65,39.65,0,0,1,13.09,3.4c1,.49,2.07,1,3.07,1.59a31.25,31.25,0,0,1,2.92,1.92,26.44,26.44,0,0,1,5.16,4.93,20.93,20.93,0,0,1,4.72,13.52A20.25,20.25,0,0,1,230,259.23Z"/></g><path class="cls-4" d="M199.75,221.67a11.05,11.05,0,0,0-11.05-11h0a74.79,74.79,0,0,0-6.56,19.9,10.94,10.94,0,0,0,6.59,2.19A11.05,11.05,0,0,0,199.75,221.67Z"/><path class="cls-5" d="M323.23,279.68A76.4,76.4,0,0,1,315,292"/><path class="cls-4" d="M319.15,278.45A7.41,7.41,0,0,0,315,292a76.4,76.4,0,0,0,8.24-12.31A7.32,7.32,0,0,0,319.15,278.45Z"/><circle class="cls-4" cx="281.73" cy="279.62" r="7.41"/><circle class="cls-6" cx="281.73" cy="279.62" r="7.41"/><path class="cls-4" d="M256.14,185.68a13.26,13.26,0,0,0,12.91-16.24,76.09,76.09,0,0,0-12.52-1,76.94,76.94,0,0,0-13.33,1.17,12.86,12.86,0,0,0-.32,2.86A13.26,13.26,0,0,0,256.14,185.68Z"/><path class="cls-5" d="M213,306h.19a76.06,76.06,0,0,1-24.56-28.65,24.61,24.61,0,0,0-.32,4"/><path class="cls-4" d="M237.69,281.31a24.69,24.69,0,0,0-49.06-4A76.06,76.06,0,0,0,213.19,306,24.7,24.7,0,0,0,237.69,281.31Z"/><path class="cls-4" d="M311.75,285.86a7.4,7.4,0,0,1,7.4-7.41,7.32,7.32,0,0,1,4.08,1.23,75.65,75.65,0,0,0-54.18-110.24,13.26,13.26,0,1,1-26.17,3,12.86,12.86,0,0,1,.32-2.86,75.7,75.7,0,0,0-54.53,41.06h0a11,11,0,1,1,0,22.09,10.94,10.94,0,0,1-6.59-2.19,76,76,0,0,0,6.52,46.82A24.69,24.69,0,1,1,213.19,306,75.65,75.65,0,0,0,315,292,7.4,7.4,0,0,1,311.75,285.86Zm-30,1.17a7.41,7.41,0,1,1,7.41-7.41A7.4,7.4,0,0,1,281.73,287Z"/><path class="cls-6" d="M199.75,221.67a11.05,11.05,0,0,0-11.05-11h0a74.79,74.79,0,0,0-6.56,19.9,10.94,10.94,0,0,0,6.59,2.19A11.05,11.05,0,0,0,199.75,221.67Z"/><path class="cls-6" d="M319.15,278.45A7.41,7.41,0,0,0,315,292a76.4,76.4,0,0,0,8.24-12.31A7.32,7.32,0,0,0,319.15,278.45Z"/><path class="cls-6" d="M256.14,185.68a13.26,13.26,0,0,0,12.91-16.24,76.09,76.09,0,0,0-12.52-1,76.94,76.94,0,0,0-13.33,1.17,12.86,12.86,0,0,0-.32,2.86A13.26,13.26,0,0,0,256.14,185.68Z"/><path class="cls-6" d="M237.69,281.31a24.69,24.69,0,0,0-49.06-4A76.06,76.06,0,0,0,213.19,306,24.7,24.7,0,0,0,237.69,281.31Z"/><path class="cls-6" d="M277.25,206a19.74,19.74,0,0,0-19.49,16.58c.65,1.33,1.35,2.62,2.1,3.89a14.61,14.61,0,1,1,14.91,17.07c.86.67,1.74,1.33,2.64,2a19.75,19.75,0,0,0-.16-39.5Z"/><path class="cls-6" d="M244.43,260a4.88,4.88,0,0,0,6.33-.54c.08-.37.14-.73.2-1.1a3.6,3.6,0,0,1-4.66.37,3.76,3.76,0,0,1,4.44-6c-.06-.27-.13-.53-.2-.79a5.08,5.08,0,0,0-6.11,8.1Z"/><path class="cls-1" d="M326.13,267.2a26.52,26.52,0,0,0-38.8-32.85,26.53,26.53,0,0,0-51.92-2.29h-.15A26.53,26.53,0,0,0,210.1,267a26.52,26.52,0,1,0,15.36,50.6,26.53,26.53,0,0,0,22.31,2,42.63,42.63,0,0,0,42.92-.54,26.7,26.7,0,0,0,7.08,1,26.38,26.38,0,0,0,12.36-3.05,26.52,26.52,0,1,0,16-49.73Z"/><g class="cls-2"><path class="cls-3" d="M248.31,248.06a39.33,39.33,0,0,0-6.76,2.26,15.25,15.25,0,0,0-4.9,3.51,17.49,17.49,0,0,0-1.82,2.39,29.58,29.58,0,0,0-1.51,2.86c-1,2-1.73,4.31-2.78,6.75a15,15,0,0,1-1-7.78,15.26,15.26,0,0,1,1.09-4,14.08,14.08,0,0,1,2.37-3.61,12.48,12.48,0,0,1,7.54-3.9A12,12,0,0,1,248.31,248.06Z"/></g><g class="cls-2"><path class="cls-3" d="M252.3,268.92a42.38,42.38,0,0,0-8.19,6,20.3,20.3,0,0,0-5.05,7.61A23.07,23.07,0,0,0,238,287a35.71,35.71,0,0,0-.25,4.79c0,3.29.51,6.69.88,10.31a24.16,24.16,0,0,1-4.78-9.82l-.29-1.38c-.08-.46-.11-.94-.17-1.41a21.28,21.28,0,0,1-.11-2.88,19.69,19.69,0,0,1,1.13-5.78,17.93,17.93,0,0,1,7.33-9A18.67,18.67,0,0,1,252.3,268.92Z"/></g><g class="cls-2"><path class="cls-3" d="M308.11,301.72a35.58,35.58,0,0,0,1.41-14.84A25.41,25.41,0,0,0,304,274.11a34.8,34.8,0,0,0-5-5.14c-.89-.84-1.92-1.52-2.87-2.31s-2-1.43-3.06-2.13c-4.18-2.77-8.71-5.16-13.31-7.73a49.38,49.38,0,0,1,15.23,4.29c1.21.59,2.4,1.22,3.57,1.9a35.9,35.9,0,0,1,3.4,2.27,31.21,31.21,0,0,1,6,5.74,24.42,24.42,0,0,1,.23,30.72Z"/></g></g></svg>