<svg xmlns="http://www.w3.org/2000/svg" viewBox="0 0 500 500"><defs><style>.cls-1{fill:#c6c5d8;stroke:#333;stroke-width:4px;opacity:0.66;}.cls-1,.cls-4,.cls-5{stroke-miterlimit:10;}.cls-2{opacity:0.5;}.cls-3{fill:#f2f2ad;}.cls-4{fill:#ffd110;}.cls-4,.cls-5{stroke:#ffc200;stroke-width:6px;}.cls-5{fill:none;}</style></defs><g id="Sun-2" data-name="Sun"><path class="cls-1" d="M245.05,225.73a22.54,22.54,0,0,0-33-27.91A22.53,22.53,0,0,0,168,195.88h-.13a22.53,22.53,0,0,0-21.37,29.67,22.53,22.53,0,1,0,13,43,22.58,22.58,0,0,0,19,1.69,36.21,36.21,0,0,0,36.47-.46A22.65,22.65,0,0,0,231.46,268a22.53,22.53,0,1,0,13.59-42.26Z"/><g class="cls-2"><path class="cls-3" d="M178.93,209.47a39.64,39.64,0,0,0-5.66,2.21,13.49,13.49,0,0,0-4,2.95,20.82,20.82,0,0,0-2.81,4.29c-.43.83-.77,1.75-1.27,2.67a20.64,20.64,0,0,1-1.39,3,16.89,16.89,0,0,1-1.05-3.25,16.43,16.43,0,0,1-.08-3.44,12,12,0,0,1,2.93-6.64,10.58,10.58,0,0,1,6.61-3.34A9.85,9.85,0,0,1,178.93,209.47Z"/></g><g class="cls-2"><path class="cls-3" d="M182.32,227.19a39.91,39.91,0,0,0-6.78,5.37,17.8,17.8,0,0,0-4.12,6.36,21,21,0,0,0-.93,3.67,30.52,30.52,0,0,0-.27,4c-.05,2.77.28,5.67.45,8.81a19.49,19.49,0,0,1-4.35-8.31,18.4,18.4,0,0,1-.55-4.89,17.09,17.09,0,0,1,1-5,15.59,15.59,0,0,1,15.59-10Z"/></g><g class="cls-2"><path class="cls-3" d="M229.74,255.06a31.73,31.73,0,0,0,.91-12.59,21.85,21.85,0,0,0-4.73-10.64,31,31,0,0,0-4.19-4.32c-.74-.71-1.61-1.29-2.4-2l-2.56-1.83c-3.51-2.39-7.31-4.49-11.17-6.83a39.16,39.16,0,0,1,13.09,3.4c1,.49,2.07,1,3.07,1.59a31.25,31.25,0,0,1,2.92,1.92,26.44,26.44,0,0,1,5.16,4.93,20.88,20.88,0,0,1,4.72,13.51A20.26,20.26,0,0,1,229.74,255.06Z"/></g><circle class="cls-4" cx="250.34" cy="244.96" r="56.13"/><line class="cls-5" x1="210.82" y1="147.62" x2="226.75" y2="187.05"/><line class="cls-5" x1="273.59" y1="303.89" x2="289.52" y2="343.32"/><line class="cls-5" x1="188.5" y1="181.55" x2="206.7" y2="200.4"/><line class="cls-5" x1="293.89" y1="291.18" x2="313.37" y2="311.35"/><line class="cls-5" x1="186.18" y1="307.96" x2="205.09" y2="289.7"/><line class="cls-5" x1="295.4" y1="202.01" x2="314.41" y2="183.66"/><line class="cls-5" x1="152.07" y1="284.19" x2="191.49" y2="268.26"/><line class="cls-5" x1="308.33" y1="221.42" x2="347.76" y2="205.49"/><line class="cls-5" x1="339.4" y1="246.36" x2="313.11" y2="246.36"/><line class="cls-5" x1="187.23" y1="246.02" x2="160.81" y2="246.02"/><line class="cls-5" x1="250.12" y1="155.69" x2="250.12" y2="181.89"/><line class="cls-5" x1="250.46" y1="307.76" x2="250.46" y2="335.8"/><line class="cls-5" x1="155.26" y1="199.53" x2="193.49" y2="218.17"/><line class="cls-5" x1="306.47" y1="273.66" x2="344.69" y2="292.3"/><line class="cls-5" x1="286.2" y1="146.58" x2="271.66" y2="186.54"/><line class="cls-5" x1="228.93" y1="304.94" x2="214.38" y2="344.9"/><path class="cls-1" d="M322.86,285.62a20.75,20.75,0,0,0-30.36-25.71,20.76,20.76,0,0,0-40.63-1.79h-.12a20.75,20.75,0,0,0-19.68,27.33,20.75,20.75,0,1,0,12,39.59,20.82,20.82,0,0,0,17.46,1.56,33.35,33.35,0,0,0,33.59-.42,21.1,21.1,0,0,0,5.54.74,20.71,20.71,0,0,0,9.67-2.38,20.75,20.75,0,1,0,12.52-38.92Z"/><g class="cls-2"><path class="cls-3" d="M262,270.64a40.6,40.6,0,0,0-5.18,2.19,13,13,0,0,0-3.55,2.7,20.08,20.08,0,0,0-2.58,3.86c-.41.75-.74,1.59-1.22,2.43a18.93,18.93,0,0,1-1.38,2.73,14.58,14.58,0,0,1-1.07-3,15.36,15.36,0,0,1-.13-3.19,11,11,0,0,1,2.71-6.21,9.73,9.73,0,0,1,6.19-3.09A9,9,0,0,1,262,270.64Z"/></g><g class="cls-2"><path class="cls-3" d="M265.09,287a39.27,39.27,0,0,0-6.15,5.06,16.47,16.47,0,0,0-3.7,5.81,18.57,18.57,0,0,0-.86,3.32,28.72,28.72,0,0,0-.28,3.65c-.08,2.54.18,5.21.26,8.13a17.34,17.34,0,0,1-4.16-7.63,16.24,16.24,0,0,1-.54-4.54,15.08,15.08,0,0,1,.89-4.66,14,14,0,0,1,6-7.18A13.81,13.81,0,0,1,265.09,287Z"/></g><g class="cls-2"><path class="cls-3" d="M308.76,312.63a29.7,29.7,0,0,0,.68-11.58,20.19,20.19,0,0,0-4.35-9.69,29.14,29.14,0,0,0-3.83-4c-.67-.65-1.46-1.18-2.19-1.8l-2.33-1.7c-3.2-2.22-6.68-4.19-10.21-6.42a35,35,0,0,1,12.13,3,31.06,31.06,0,0,1,5.56,3.23,24,24,0,0,1,4.79,4.56,19.24,19.24,0,0,1,4.34,12.56A18.47,18.47,0,0,1,308.76,312.63Z"/></g></g></svg>