<svg xmlns="http://www.w3.org/2000/svg" viewBox="0 0 500 500"><defs><style>.cls-1{fill:#c6c5d8;stroke:#333;stroke-width:4px;opacity:0.66;}.cls-1,.cls-4{stroke-miterlimit:10;}.cls-2{opacity:0.5;}.cls-3{fill:#f2f2ad;}.cls-4{fill:#ffd110;stroke:#ffc200;stroke-width:6px;}</style></defs><g id="Sun1"><path class="cls-1" d="M248.23,224.39a22.53,22.53,0,0,0-33-27.91,22.54,22.54,0,0,0-44.11-1.95H171a22.53,22.53,0,0,0-21.37,29.67,22.53,22.53,0,1,0,13,43,22.54,22.54,0,0,0,19,1.7,36.18,36.18,0,0,0,36.47-.47,22.48,22.48,0,0,0,16.51-1.78,22.53,22.53,0,1,0,13.6-42.25Z"/><g class="cls-2"><path class="cls-3" d="M182.11,208.12a40.37,40.37,0,0,0-5.66,2.21,13.51,13.51,0,0,0-4,3,20.73,20.73,0,0,0-2.81,4.28c-.43.84-.77,1.76-1.27,2.68a20.07,20.07,0,0,1-1.39,3,16,16,0,0,1-1-3.25,17.09,17.09,0,0,1-.09-3.44,12,12,0,0,1,2.94-6.63,10.6,10.6,0,0,1,6.61-3.35A9.91,9.91,0,0,1,182.11,208.12Z"/></g><g class="cls-2"><path class="cls-3" d="M185.5,225.85a39.91,39.91,0,0,0-6.78,5.37,17.71,17.71,0,0,0-4.12,6.36,19.73,19.73,0,0,0-.93,3.67,30.52,30.52,0,0,0-.27,4c-.05,2.77.28,5.66.45,8.8a19.35,19.35,0,0,1-4.35-8.3,18.87,18.87,0,0,1-.56-4.89,17.44,17.44,0,0,1,1-5,15.59,15.59,0,0,1,15.59-10Z"/></g><g class="cls-2"><path class="cls-3" d="M232.92,253.72a31.55,31.55,0,0,0,.9-12.59,21.75,21.75,0,0,0-4.72-10.64,30,30,0,0,0-4.2-4.32c-.73-.71-1.6-1.29-2.39-2L220,222.37c-3.51-2.38-7.31-4.49-11.17-6.82a39.39,39.39,0,0,1,13.09,3.39c1,.5,2.06,1,3.07,1.59a32.73,32.73,0,0,1,2.92,1.93,26.67,26.67,0,0,1,5.16,4.92,20.93,20.93,0,0,1,4.72,13.52A20.34,20.34,0,0,1,232.92,253.72Z"/></g><path class="cls-1" d="M339.23,226.39a22.53,22.53,0,0,0-33-27.91,22.54,22.54,0,0,0-44.11-1.95H262a22.53,22.53,0,0,0-21.37,29.67,22.53,22.53,0,1,0,13,43,22.54,22.54,0,0,0,19,1.7,36.18,36.18,0,0,0,36.47-.47,22.48,22.48,0,0,0,16.51-1.78,22.53,22.53,0,1,0,13.6-42.25Z"/><g class="cls-2"><path class="cls-3" d="M273.11,210.12a40.37,40.37,0,0,0-5.66,2.21,13.51,13.51,0,0,0-4,3,20.73,20.73,0,0,0-2.81,4.28c-.43.84-.77,1.76-1.27,2.68a20.07,20.07,0,0,1-1.39,3A16,16,0,0,1,257,222a17.09,17.09,0,0,1-.09-3.44,12,12,0,0,1,2.94-6.63,10.6,10.6,0,0,1,6.61-3.35A9.91,9.91,0,0,1,273.11,210.12Z"/></g><g class="cls-2"><path class="cls-3" d="M276.5,227.85a39.91,39.91,0,0,0-6.78,5.37,17.71,17.71,0,0,0-4.12,6.36,19.73,19.73,0,0,0-.93,3.67,30.52,30.52,0,0,0-.27,4c0,2.77.28,5.66.45,8.8a19.35,19.35,0,0,1-4.35-8.3,18.87,18.87,0,0,1-.56-4.89,17.44,17.44,0,0,1,1-5,15.59,15.59,0,0,1,15.59-10Z"/></g><g class="cls-2"><path class="cls-3" d="M323.92,255.72a31.55,31.55,0,0,0,.9-12.59,21.75,21.75,0,0,0-4.72-10.64,30,30,0,0,0-4.2-4.32c-.73-.71-1.6-1.29-2.39-2L311,224.37c-3.51-2.38-7.31-4.49-11.17-6.82a39.39,39.39,0,0,1,13.09,3.39c1,.5,2.06,1,3.07,1.59a32.73,32.73,0,0,1,2.92,1.93,26.67,26.67,0,0,1,5.16,4.92,20.93,20.93,0,0,1,4.72,13.52A20.34,20.34,0,0,1,323.92,255.72Z"/></g><circle class="cls-4" cx="253.52" cy="243.62" r="56.13"/><path class="cls-1" d="M316,283.28a20.75,20.75,0,0,0-30.36-25.71,20.76,20.76,0,0,0-40.63-1.79h-.12a20.74,20.74,0,0,0-19.68,27.32,20.76,20.76,0,1,0,12,39.6,20.82,20.82,0,0,0,17.46,1.56,33.32,33.32,0,0,0,33.59-.43,20.79,20.79,0,0,0,15.21-1.64A20.75,20.75,0,1,0,316,283.28Z"/><g class="cls-2"><path class="cls-3" d="M255.15,268.3a40.67,40.67,0,0,0-5.18,2.18,12.91,12.91,0,0,0-3.55,2.71,20.81,20.81,0,0,0-2.59,3.85c-.4.76-.73,1.6-1.22,2.43a17.86,17.86,0,0,1-1.37,2.73,14.49,14.49,0,0,1-1.07-3A15.48,15.48,0,0,1,240,276a11,11,0,0,1,2.71-6.2,9.77,9.77,0,0,1,6.19-3.1A9,9,0,0,1,255.15,268.3Z"/></g><g class="cls-2"><path class="cls-3" d="M258.27,284.62a38.84,38.84,0,0,0-6.15,5.07,16.44,16.44,0,0,0-3.7,5.8,18.9,18.9,0,0,0-.86,3.33,30.32,30.32,0,0,0-.29,3.65c-.07,2.53.19,5.2.27,8.13a17.36,17.36,0,0,1-4.17-7.63,17.06,17.06,0,0,1-.54-4.54,15.52,15.52,0,0,1,.9-4.67,14.2,14.2,0,0,1,14.54-9.14Z"/></g><g class="cls-2"><path class="cls-3" d="M301.94,310.29a29.75,29.75,0,0,0,.68-11.59,20.21,20.21,0,0,0-4.35-9.68,28,28,0,0,0-3.83-4c-.67-.65-1.46-1.18-2.19-1.8l-2.33-1.7c-3.2-2.22-6.68-4.2-10.21-6.43a35.06,35.06,0,0,1,12.13,3,30.75,30.75,0,0,1,5.56,3.22,24.25,24.25,0,0,1,4.78,4.56,19.22,19.22,0,0,1,4.35,12.56A18.48,18.48,0,0,1,301.94,310.29Z"/></g></g></svg>