<svg xmlns="http://www.w3.org/2000/svg" viewBox="0 0 640 640"><defs><style>.cls-1{fill:#fce68b;stroke:#ffdb76;stroke-width:15px;}.cls-1,.cls-2{stroke-miterlimit:10;}.cls-2{fill:#e2c85a;stroke:#f9cb0d;stroke-width:14px;opacity:0.5;}</style></defs><g id="Mon3"><path class="cls-1" d="M356.5,534a87.26,87.26,0,0,1,26.62-62.84,204.48,204.48,0,0,1,5.79-303.56,52,52,0,1,1,59.36-36,205.36,205.36,0,0,1,103.77-12A303,303,0,0,0,159,64,80.51,80.51,0,1,1,62,165.43a303.15,303.15,0,0,0,14.89,329.1,87.51,87.51,0,1,1,116.38,97.6,304.1,304.1,0,0,0,209.31,19A87.5,87.5,0,0,1,356.5,534Zm-124-178.5a37,37,0,1,1,37-37A37,37,0,0,1,232.5,355.5Z"/><path class="cls-1" d="M531.5,534c0,1.64,0,3.28-.14,4.9,4.65-4.39,9.18-8.9,13.54-13.57-4.54.48-9.12.8-13.74,1C531.38,528.85,531.5,531.41,531.5,534Z"/><path class="cls-2" d="M139,222.5A80.51,80.51,0,0,0,159,64,304.54,304.54,0,0,0,62,165.43,80.53,80.53,0,0,0,139,222.5Z"/><path class="cls-2" d="M394.49,64.65a52.12,52.12,0,0,0-47.9,48.82c-1.52,26.78,15.83,50.35,40.91,55a214.24,214.24,0,0,1,60.77-36.91,52,52,0,0,0-53.78-66.94Z"/><path class="cls-2" d="M250.5,510A87.51,87.51,0,0,0,76.86,494.53a304.2,304.2,0,0,0,116.38,97.6A87.52,87.52,0,0,0,250.5,510Z"/><path class="cls-2" d="M531.16,526.32c-2.71.11-5.43.18-8.16.18a203.8,203.8,0,0,1-139.88-55.34,87.51,87.51,0,0,0,19.43,139.92A302.47,302.47,0,0,0,531.36,538.9c.09-1.62.14-3.26.14-4.9C531.5,531.41,531.38,528.85,531.16,526.32Z"/><circle class="cls-2" cx="232.5" cy="318.5" r="37"/></g></svg>