<svg xmlns="http://www.w3.org/2000/svg" viewBox="0 0 621 640"><defs><style>.cls-1{fill:#fce68b;stroke:#ffdb76;stroke-width:15px;}.cls-1,.cls-2{stroke-miterlimit:10;}.cls-2,.cls-3{fill:#e2c85a;opacity:0.5;}.cls-2{stroke:#d1b850;stroke-width:2px;}</style></defs><g id="Mon"><path class="cls-1" d="M92,234.5A42.5,42.5,0,0,0,49.5,192h-.14a288.68,288.68,0,0,0-25.24,76.59A42.5,42.5,0,0,0,92,234.5Z"/><path class="cls-2" d="M567.17,457.7a291.14,291.14,0,0,1-31.69,47.37"/><path class="cls-1" d="M551.5,453a28.5,28.5,0,0,0-16,52.07,291.14,291.14,0,0,0,31.69-47.37A28.32,28.32,0,0,0,551.5,453Z"/><circle class="cls-1" cx="407.5" cy="457.5" r="28.5"/><circle class="cls-3" cx="407.5" cy="457.5" r="28.5"/><path class="cls-1" d="M309,96a51,51,0,0,0,49.68-62.51A293.47,293.47,0,0,0,259.2,34,51,51,0,0,0,309,96Z"/><path class="cls-2" d="M143,559h.74A292.27,292.27,0,0,1,49.23,448.74,94.75,94.75,0,0,0,48,464"/><path class="cls-1" d="M238,464A95,95,0,0,0,49.23,448.74,292.27,292.27,0,0,0,143.74,559,95,95,0,0,0,238,464Z"/><path class="cls-1" d="M523,481.5a28.49,28.49,0,0,1,44.17-23.8A289.65,289.65,0,0,0,601.5,320.5c0-144.3-105-264-242.82-287A51,51,0,1,1,259.2,34C166.84,50.44,89.57,110.44,49.36,192h.14a42.5,42.5,0,1,1-25.38,76.59A293.05,293.05,0,0,0,19.5,320.5,289.73,289.73,0,0,0,49.23,448.74,95,95,0,1,1,143.74,559a291,291,0,0,0,391.74-53.92A28.47,28.47,0,0,1,523,481.5ZM407.5,486A28.5,28.5,0,1,1,436,457.5,28.5,28.5,0,0,1,407.5,486Z"/><path class="cls-3" d="M92,234.5A42.5,42.5,0,0,0,49.5,192h-.14a288.68,288.68,0,0,0-25.24,76.59A42.5,42.5,0,0,0,92,234.5Z"/><path class="cls-3" d="M551.5,453a28.5,28.5,0,0,0-16,52.07,291.14,291.14,0,0,0,31.69-47.37A28.32,28.32,0,0,0,551.5,453Z"/><path class="cls-3" d="M309,96a51,51,0,0,0,49.68-62.51A293.47,293.47,0,0,0,259.2,34,51,51,0,0,0,309,96Z"/><path class="cls-3" d="M238,464A95,95,0,0,0,49.23,448.74,292.27,292.27,0,0,0,143.74,559,95,95,0,0,0,238,464Z"/><path class="cls-3" d="M390.25,174a76,76,0,0,0-75,63.79c2.51,5.1,5.22,10.09,8.08,15a56.25,56.25,0,1,1,57.39,65.68c3.31,2.61,6.69,5.14,10.14,7.56a76,76,0,0,0-.59-152Z"/><path class="cls-3" d="M264,382.08c7.28,5.53,17.61,4.48,24.35-2.06.31-1.41.56-2.82.77-4.24-5,4.77-12.58,5.52-17.94,1.44-6-4.54-6.91-13.37-2.08-19.72s13.21-7.74,19.18-3.54c-.24-1-.49-2-.78-3-8.08-6-19.83-4-26.32,4.49S255.87,375.94,264,382.08Z"/></g></svg>