<svg xmlns="http://www.w3.org/2000/svg" viewBox="0 0 621 640"><defs><style>.cls-1{fill:#fce68b;stroke:#ffdb76;stroke-width:15px;}.cls-1,.cls-3{stroke-miterlimit:10;}.cls-2,.cls-3{fill:#e2c85a;opacity:0.5;}.cls-3{stroke:#d1b850;stroke-width:2px;}.cls-4{fill:none;}</style></defs><g id="Mon2"><path class="cls-1" d="M92,234.5A42.5,42.5,0,0,0,49.5,192h-.14a288.68,288.68,0,0,0-25.24,76.59A42.5,42.5,0,0,0,92,234.5Z"/><path class="cls-2" d="M92,234.5A42.5,42.5,0,0,0,49.5,192h-.14a288.68,288.68,0,0,0-25.24,76.59A42.5,42.5,0,0,0,92,234.5Z"/><path class="cls-1" d="M309,96a51,51,0,0,0,49.68-62.51A293.47,293.47,0,0,0,259.2,34,51,51,0,0,0,309,96Z"/><path class="cls-2" d="M309,96a51,51,0,0,0,49.68-62.51A293.47,293.47,0,0,0,259.2,34,51,51,0,0,0,309,96Z"/><path class="cls-3" d="M143,559h.74A292.27,292.27,0,0,1,49.23,448.74,94.75,94.75,0,0,0,48,464"/><path class="cls-1" d="M238,464c-5.5-22.5-18.5-32.5-26.5-58.5-8.05-26.16-39-36.5-68.5-36.5a95,95,0,0,0-93.77,79.74A292.27,292.27,0,0,0,143.74,559C195.87,558.59,250.4,514.72,238,464Z"/><path class="cls-4" d="M237.81,458A94.77,94.77,0,0,0,208.27,395a258.44,258.44,0,0,0,15.66,39.9Z"/><path class="cls-1" d="M258.9,35.51h0c.1-.5.18-1,.29-1.5C166.84,50.44,89.57,110.44,49.36,192h.45C90.22,111.21,167.11,51.84,258.9,35.51Z"/><path class="cls-2" d="M309,96a50.91,50.91,0,0,0,50-60.9l-.63-.11a293.41,293.41,0,0,0-99.47.52A50.91,50.91,0,0,0,309,96Z"/><path class="cls-2" d="M143.74,559A95,95,0,0,0,238,464c0-2-.07-4-.19-6l-13.88-23.16A258.44,258.44,0,0,1,208.27,395a95,95,0,0,0-159,53.77A289.73,289.73,0,0,1,19.5,320.5a293.05,293.05,0,0,1,4.62-51.91A42.5,42.5,0,1,0,49.81,192c-.25.5-.51,1-.75,1.49a288.68,288.68,0,0,0-25.24,76.59A293.05,293.05,0,0,0,19.2,322,289.73,289.73,0,0,0,48.93,450.24C49,451,54,463,56,467l17.58,24.38a292.8,292.8,0,0,0,67.25,67.25l1.87,1.87h.74a291.26,291.26,0,0,0,300.68,19.93c-.79,0-1.57-.1-2.35-.15a291.24,291.24,0,0,1-298-21.28Z"/><path class="cls-1" d="M92,234.5a42.5,42.5,0,0,1-67.88,34.09A293.05,293.05,0,0,0,19.5,320.5,289.73,289.73,0,0,0,49.23,448.74a95,95,0,0,1,159-53.77A260.95,260.95,0,0,1,412.19,63q12.06-2.15,24.5-3.15A289,289,0,0,0,359,35.1a51,51,0,1,1-100.1.41h0C167.11,51.84,90.22,111.21,49.81,192A42.49,42.49,0,0,1,92,234.5Z"/><path class="cls-1" d="M92,234.5a42.5,42.5,0,0,1-67.88,34.09A293.05,293.05,0,0,0,19.5,320.5,289.73,289.73,0,0,0,49.23,448.74a95,95,0,0,1,159-53.77A260.95,260.95,0,0,1,412.19,63q12.06-2.15,24.5-3.15A289,289,0,0,0,359,35.1a51,51,0,1,1-100.1.41h0C167.11,51.84,90.22,111.21,49.81,192A42.49,42.49,0,0,1,92,234.5Z"/><path class="cls-1" d="M308,533.73l-1.69-1.68A262.31,262.31,0,0,1,246,471.76L237.81,458c.12,2,.19,4,.19,6a95,95,0,0,1-94.26,95,291.24,291.24,0,0,0,298,21.28,259.46,259.46,0,0,1-133.1-46.55Z"/><path class="cls-1" d="M308,533.73l-1.69-1.68A262.31,262.31,0,0,1,246,471.76L237.81,458c.12,2,.19,4,.19,6a95,95,0,0,1-94.26,95,291.24,291.24,0,0,0,298,21.28,259.46,259.46,0,0,1-133.1-46.55Z"/></g></svg>