<svg xmlns="http://www.w3.org/2000/svg" viewBox="0 0 500 500"><defs><style>.cls-1{fill:#f7931e;}</style></defs><g id="orangeRigth"><path class="cls-1" d="M327.68,141.84a164.24,164.24,0,0,1,14.81,9.68c4.74,3.38,9.26,6.92,13.69,10.53q13.24,10.88,25.17,22.73t22.9,24.45c3.66,4.19,7.22,8.46,10.73,12.77l.66.81.32.4.17.22.34.46a39.53,39.53,0,0,1,2.49,3.77c.37.64.73,1.28,1.08,1.93l.91,1.94a37.71,37.71,0,0,1,1.54,3.91,44.55,44.55,0,0,1,2.19,15.68,43.45,43.45,0,0,1-3.59,15.69c-.29.66-.6,1.3-.91,1.95s-.7,1.29-1.07,1.93a37.59,37.59,0,0,1-2.47,3.78l-.34.46-.23.31-.32.41-.65.81-1.3,1.63c-3.51,4.31-7.06,8.58-10.72,12.78-7.3,8.4-14.89,16.58-22.88,24.46S363.85,330.81,355,338.05c-4.43,3.61-9,7.14-13.7,10.52a160.39,160.39,0,0,1-14.84,9.66,161.55,161.55,0,0,1,5.28-16.9c2-5.47,4.13-10.8,6.4-16q6.87-15.71,15-30.4c5.4-9.83,11.22-19.35,17.33-28.66,3-4.66,6.2-9.23,9.39-13.78l1.21-1.7.61-.84.31-.42.07-.11s0,0,0,0l0,0c-.11.08-.17.23-.24.27s-.05.08-.07.1a.1.1,0,0,0-.06.05c-.05.14,0-.15,0-.47a6.41,6.41,0,0,0,0-.74s0,0,0,0a.09.09,0,0,0,.06,0l.07.11c.08,0,.13.19.24.26l.05,0-.15-.19-.3-.43-.59-.85c-3.2-4.55-6.35-9.13-9.39-13.79-6.1-9.31-11.9-18.85-17.31-28.68s-10.47-19.93-15-30.39c-2.28-5.24-4.45-10.56-6.42-16A161.26,161.26,0,0,1,327.68,141.84Z"/></g></svg>