<svg xmlns="http://www.w3.org/2000/svg" viewBox="0 0 640 640"><defs><style>.cls-1{fill:#1fb2fc;stroke:#36a6dd;stroke-miterlimit:10;stroke-width:14px;}</style></defs><g id="Rain"><rect class="cls-1" x="554" y="271" width="38" height="194" rx="19" transform="translate(179.58 -187.85) rotate(22)"/><rect class="cls-1" x="487.16" y="482.34" width="38" height="102.39" rx="19" transform="translate(236.72 -150.76) rotate(22)"/><rect class="cls-1" x="354" y="262" width="38" height="194" rx="19" transform="translate(161.64 -113.59) rotate(22)"/><rect class="cls-1" x="443.96" y="259.08" width="38" height="274.3" rx="19" transform="translate(182.14 -144.58) rotate(22)"/><rect class="cls-1" x="368.93" y="547.46" width="38" height="71.57" rx="19" transform="translate(246.73 -102.85) rotate(22)"/><rect class="cls-1" x="114.93" y="463.46" width="38" height="71.57" rx="19" transform="translate(196.77 -13.82) rotate(22)"/><rect class="cls-1" x="279.8" y="468.07" width="38" height="109.64" rx="19" transform="translate(217.64 -73.86) rotate(22)"/><rect class="cls-1" x="58.26" y="247.94" width="38" height="278.04" rx="19" transform="translate(150.58 -0.76) rotate(22)"/><rect class="cls-1" x="172" y="251" width="38" height="194" rx="19" transform="translate(144.27 -46.21) rotate(22)"/><rect class="cls-1" x="247.94" y="247.29" width="38" height="295.77" rx="19" transform="translate(167.47 -71.22) rotate(22)"/></g></svg>