<svg xmlns="http://www.w3.org/2000/svg" viewBox="0 0 640 640"><defs><style>.cls-1{fill:#cce2ea;stroke:#aad7e8;stroke-miterlimit:10;stroke-width:8px;}</style></defs><g id="Snow"><path class="cls-1" d="M80,323a27,27,0,0,1-54,0c0-14.91,12.09-33,27-33S80,308.09,80,323Z"/><polygon class="cls-1" points="192.35 323.93 170.73 322.71 173.9 344.14 158.76 329.2 147.36 348.3 145.79 326.62 125.17 334.46 137.9 316.19 117.69 309.1 138.77 302.79 128.43 284.09 147.99 292.69 152.37 271.13 161.26 290.61 178.3 276.28 172.36 297.53 194.09 297.13 176.1 310.21 192.35 323.93"/><path class="cls-1" d="M290,323a27,27,0,0,1-54,0c0-14.91,12.09-33,27-33S290,308.09,290,323Z"/><polygon class="cls-1" points="402.35 323.93 380.73 322.71 383.9 344.14 368.76 329.2 357.36 348.3 355.79 326.62 335.17 334.46 347.9 316.19 327.69 309.1 348.77 302.79 338.43 284.09 357.99 292.69 362.37 271.13 371.26 290.61 388.3 276.28 382.36 297.53 404.09 297.13 386.1 310.21 402.35 323.93"/><path class="cls-1" d="M496,329a27,27,0,0,1-54,0c0-14.91,12.09-33,27-33S496,314.09,496,329Z"/><polygon class="cls-1" points="608.35 329.93 586.73 328.71 589.9 350.14 574.76 335.2 563.36 354.3 561.79 332.62 541.16 340.46 553.9 322.19 533.69 315.1 554.77 308.79 544.43 290.09 563.99 298.69 568.37 277.13 577.26 296.61 594.3 282.28 588.36 303.53 610.09 303.13 592.1 316.21 608.35 329.93"/><path class="cls-1" d="M191,459a27,27,0,0,1-54,0c0-14.91,12.09-33,27-33S191,444.09,191,459Z"/><polygon class="cls-1" points="303.35 450.93 281.73 449.71 284.9 471.14 269.76 456.2 258.36 475.3 256.79 453.62 236.16 461.46 248.9 443.19 228.69 436.1 249.77 429.79 239.43 411.09 258.99 419.69 263.37 398.13 272.26 417.61 289.3 403.28 283.36 424.53 305.09 424.13 287.1 437.21 303.35 450.93"/><path class="cls-1" d="M397,465a27,27,0,0,1-54,0c0-14.91,12.09-33,27-33S397,450.09,397,465Z"/><polygon class="cls-1" points="509.35 456.93 487.73 455.71 490.9 477.14 475.76 462.2 464.36 481.3 462.79 459.62 442.17 467.46 454.9 449.19 434.69 442.1 455.77 435.79 445.43 417.09 464.99 425.69 469.37 404.13 478.26 423.61 495.3 409.28 489.36 430.53 511.09 430.13 493.1 443.21 509.35 456.93"/><path class="cls-1" d="M610,465a27,27,0,0,1-54,0c0-14.91,12.09-33,27-33S610,450.09,610,465Z"/><polygon class="cls-1" points="90.35 456.93 68.73 455.71 71.9 477.14 56.76 462.2 45.36 481.3 43.79 459.62 23.16 467.46 35.9 449.19 15.69 442.1 36.77 435.79 26.43 417.09 45.99 425.69 50.37 404.13 59.26 423.61 76.3 409.28 70.36 430.53 92.09 430.13 74.1 443.21 90.35 456.93"/><path class="cls-1" d="M88,584a27,27,0,0,1-54,0c0-14.91,12.09-33,27-33S88,569.09,88,584Z"/><polygon class="cls-1" points="200.35 586.93 178.73 585.71 181.9 607.14 166.76 592.2 155.36 611.3 153.79 589.62 133.16 597.46 145.9 579.19 125.69 572.1 146.77 565.79 136.43 547.09 155.99 555.69 160.37 534.13 169.26 553.61 186.3 539.28 180.36 560.53 202.09 560.13 184.1 573.21 200.35 586.93"/><path class="cls-1" d="M290,576a27,27,0,0,1-54,0c0-14.91,12.09-33,27-33S290,561.09,290,576Z"/><polygon class="cls-1" points="402.35 578.93 380.73 577.71 383.9 599.14 368.76 584.2 357.36 603.3 355.79 581.62 335.17 589.46 347.9 571.19 327.69 564.1 348.77 557.79 338.43 539.09 357.99 547.69 362.37 526.13 371.26 545.61 388.3 531.28 382.36 552.53 404.09 552.13 386.1 565.21 402.35 578.93"/><path class="cls-1" d="M504,590a27,27,0,0,1-54,0c0-14.91,12.09-33,27-33S504,575.09,504,590Z"/><polygon class="cls-1" points="616.35 592.93 594.73 591.71 597.9 613.14 582.76 598.2 571.36 617.3 569.79 595.62 549.16 603.46 561.9 585.19 541.69 578.1 562.77 571.79 552.43 553.09 571.99 561.69 576.37 540.13 585.26 559.61 602.3 545.28 596.36 566.53 618.09 566.13 600.1 579.21 616.35 592.93"/></g></svg>