<svg xmlns="http://www.w3.org/2000/svg" viewBox="0 0 621 635"><defs><style>.cls-1{fill:#ffd110;}.cls-1,.cls-2{stroke:#ffc200;stroke-miterlimit:10;stroke-width:15px;}.cls-2{fill:none;}</style></defs><g id="Sun1"><ellipse class="cls-1" cx="310.49" cy="318.5" rx="162.87" ry="165"/><line class="cls-2" x1="310.49" y1="10" x2="310.49" y2="135"/><line class="cls-2" x1="309.51" y1="505" x2="309.51" y2="630"/><line class="cls-2" x1="213.57" y1="77.87" x2="242.05" y2="149.28"/><line class="cls-2" x1="377.95" y1="492.72" x2="408.43" y2="569.14"/><line class="cls-2" x1="69.92" y1="419.85" x2="140.66" y2="390.9"/><line class="cls-2" x1="478.92" y1="251.37" x2="550.01" y2="222.27"/><line class="cls-2" x1="4" y1="317.5" x2="127.39" y2="317.5"/><line class="cls-2" x1="492.61" y1="318.5" x2="616" y2="318.5"/><line class="cls-2" x1="549.1" y1="420.67" x2="478.36" y2="391.72"/><line class="cls-2" x1="140.1" y1="252.19" x2="69.01" y2="223.09"/><line class="cls-2" x1="407.47" y1="75.25" x2="378.99" y2="146.66"/><line class="cls-2" x1="243.09" y1="490.09" x2="212.61" y2="566.51"/><line class="cls-2" x1="104.63" y1="90.29" x2="187.19" y2="183.18"/><line class="cls-2" x1="430.84" y1="458.82" x2="513.4" y2="551.71"/><line class="cls-2" x1="514.43" y1="90.17" x2="431.86" y2="183.06"/><line class="cls-2" x1="188.21" y1="458.7" x2="105.65" y2="551.59"/></g></svg>