<svg xmlns="http://www.w3.org/2000/svg" viewBox="0 0 612 640"><defs><style>.cls-1{fill:#ffd110;}.cls-1,.cls-2{stroke:#ffc200;stroke-miterlimit:10;stroke-width:15px;}.cls-2{fill:none;}</style></defs><g id="Sun2"><circle class="cls-1" cx="302.5" cy="317.5" r="165"/><line class="cls-2" x1="186.34" y1="31.39" x2="233.16" y2="147.28"/><line class="cls-2" x1="370.84" y1="490.72" x2="417.66" y2="606.61"/><line class="cls-2" x1="120.72" y1="131.1" x2="174.22" y2="186.5"/><line class="cls-2" x1="430.53" y1="453.35" x2="487.78" y2="512.64"/><line class="cls-2" x1="113.9" y1="502.69" x2="169.49" y2="449.01"/><line class="cls-2" x1="434.96" y1="191.26" x2="490.83" y2="137.3"/><line class="cls-2" x1="13.64" y1="432.81" x2="129.53" y2="385.98"/><line class="cls-2" x1="472.97" y1="248.31" x2="588.87" y2="201.48"/><line class="cls-2" x1="564.29" y1="321.6" x2="487.01" y2="321.6"/><line class="cls-2" x1="117.01" y1="320.6" x2="39.33" y2="320.6"/><line class="cls-2" x1="301.87" y1="55.08" x2="301.87" y2="132.1"/><line class="cls-2" x1="302.87" y1="502.1" x2="302.87" y2="584.52"/><line class="cls-2" x1="23.04" y1="183.96" x2="135.39" y2="238.75"/><line class="cls-2" x1="467.51" y1="401.85" x2="579.85" y2="456.65"/><line class="cls-2" x1="407.92" y1="28.33" x2="365.17" y2="145.79"/><line class="cls-2" x1="239.56" y1="493.82" x2="196.81" y2="611.28"/></g></svg>